<svg version="1.1" id="Layer_1" xmlns="http://www.w3.org/2000/svg" x="0" y="0" viewBox="0 0 160 160" style="enable-background:new 0 0 160 160" xml:space="preserve"><style>.st0{fill:#e1f7ff}</style><path class="st0" d="M131.7 132.9c17.9.9 27.7 8.2 27.7 8.2v-31.2c-11-11.3-25.4-7.1-35.1-15.7-9.6-8.6-40 3.1-54.5 8S66 90.7 49.2 88.5C36.2 86.8 11.4 99 .8 104.6v30.2c6.5-5.6 16.4-12.3 28.5-15.1 22.1-5.1 5.8 6.9 20.1 8.2 14.3 1.3 39.1-12.6 51-13.5 11.8-.9 13.6 2.7 12.7 8-.8 5.2.7 9.6 18.6 10.5z"/><path class="st0" d="M75.4 88c3.4 8.8 44.5-7.5 53-11.1 8.5-3.5 13.2-1.3 12.3 8-.9 9.3 9.6 11.1 18.7 11.5V1l-39.6 38.2H40.4L.8 1v89c82.5-38.4 71.3-10.7 74.6-2zM122.1 141.8c-11.8-.2-21.5 5.3-25-8.2-3.6-13.5-25-3.8-46.9 5.1-21.9 8.8-8.9.4-22.6-1.3-10.1-1.3-21.5 8.4-26.7 13.5v9.1h158.7v-1.8c-4.9-6.9-25.6-16.2-37.5-16.4z"/></svg>