<svg version="1.1" id="Layer_1" xmlns="http://www.w3.org/2000/svg" x="0" y="0" viewBox="0 0 206 208.8" style="enable-background:new 0 0 206 208.8" xml:space="preserve"><path d="M154.7 50.1H51.4L0 0v208.8h80.5c5.8-10.2 7.4-20.7 7.7-31.3-4.9 5.6-12.1 9.2-20.2 9.2-14.8 0-26.9-12-26.9-26.9 0-11.2 6.9-20.9 16.7-24.9-4.7-3.6-7.7-9.3-7.7-15.6 0-10.9 8.8-19.7 19.7-19.7 2.9 0 5.7.7 8.2 1.8 0-.6-.1-1.2-.1-1.8 0-14.1 11.4-25.4 25.4-25.4s25.4 11.4 25.4 25.4c0 .7-.1 1.3-.1 2 2.6-1.3 5.5-2 8.6-2 10.9 0 19.7 8.8 19.7 19.7 0 6.4-3 12-7.7 15.6 8.7 3.6 15.3 11.6 16.5 21.6 1.8 14.7-8.7 28.1-23.4 29.9-9.2 1.1-17.9-2.6-23.5-9.1.3 10.9 2 21.3 8.1 31.4H206V0l-51.3 50.1z" style="fill:#475054"/></svg>