<svg version="1.1" id="Layer_1" xmlns="http://www.w3.org/2000/svg" x="0" y="0" viewBox="0 0 160 160" style="enable-background:new 0 0 160 160" xml:space="preserve"><style>.st0{fill:#352104}</style><path class="st0" d="M37.5 113.2c29.1 14.8 51.6 12.6 63.2 1.5 11.6-11.1 14.7-33-4.7-41.6s-36.9 2.9-36.4 13c.4 10.2 24.1 16.6 24.8-2.7 0 0 7.2-4.4 10.3 7.7 3.1 12.2-35.3 24.1-42.5 6.9-7.1-17-.7-38.3 39.1-35.2 39.8 3.1 35.3 38.9 20.3 56.2l-1.3 2.3c13.2-3.7 36.5 3.4 48.7 7.7V1l-39.6 38.2H40L.4 1v100.6c8.5.8 21.4 3.7 37.1 11.6zM48.6 141.7c-23.3-6.1-39.7-4.2-48.2-2.2v20.4H159v-10c-39.4-27.8-76.5.6-110.4-8.2z"/></svg>